<svg xmlns="http://www.w3.org/2000/svg" version="1.1" xmlns:xlink="http://www.w3.org/1999/xlink" xmlns:svgjs="http://svgjs.dev/svgjs" width="1000" height="1125" viewBox="0 0 1000 1125"><g transform="matrix(1,0,0,1,0,0)"><svg viewBox="0 0 320 360" data-background-color="#282634" preserveAspectRatio="xMidYMid meet" height="1125" width="1000" xmlns="http://www.w3.org/2000/svg" xmlns:xlink="http://www.w3.org/1999/xlink"><g id="tight-bounds" transform="matrix(1,0,0,1,0,0)"><svg viewBox="0 0 320 360" height="360" width="320"><g><svg></svg></g><g><svg viewBox="0 0 320 360" height="360" width="320"><g><path xmlns="http://www.w3.org/2000/svg" d="M320 141.95l-19.957-19.957v-28.224l-53.812-53.812h-28.223l-19.958-19.957h-76.1l-19.957 19.957h-28.224l-53.812 53.812v28.224l-19.957 19.957v76.104l19.957 19.958v28.223l53.816 53.808h28.224l19.957 19.957h76.104l19.958-19.957h28.223l53.812-53.812v-28.224l19.949-19.957zM244.374 44.437l51.189 51.189v21.887l-73.076-73.076zM295.563 123.849v112.306l-79.408 79.408h-112.306l-79.412-79.412v-112.302l79.412-79.412h112.306zM123.807 24.48h72.39l15.478 15.477h-103.346zM24.437 95.626l51.189-51.189h21.887l-73.076 73.076zM4.484 216.197v-72.394l15.477-15.478v103.342zM75.626 315.563l-51.189-51.189v-21.887l73.076 73.076zM196.197 335.52h-72.39l-15.478-15.477h103.342zM295.563 264.374l-51.189 51.189h-21.887l73.076-73.076zM315.52 216.197l-15.477 15.478v-103.346l15.477 15.478z" fill="#ff4057" fill-rule="nonzero" stroke="none" stroke-width="1" stroke-linecap="butt" stroke-linejoin="miter" stroke-miterlimit="10" stroke-dasharray="" stroke-dashoffset="0" font-family="none" font-weight="none" font-size="none" text-anchor="none" style="mix-blend-mode: normal" data-fill-palette-color="tertiary"></path></g><g transform="matrix(1,0,0,1,56,143.31299876289913)"><svg viewBox="0 0 208 73.37400247420175" height="73.37400247420175" width="208"><g><svg viewBox="0 0 208 73.37400247420175" height="73.37400247420175" width="208"><g><svg viewBox="0 0 208 73.37400247420175" height="73.37400247420175" width="208"><g id="textblocktransform"><svg viewBox="0 0 208 73.37400247420175" height="73.37400247420175" width="208" id="textblock"><g><svg viewBox="0 0 208 53.1196873318923" height="53.1196873318923" width="208"><rect width="208" height="53.1196873318923" x="0" y="0" opacity="1" fill="#ff4057" data-fill-palette-color="tertiary"></rect><g transform="matrix(1,0,0,1,17.083765800000002,17.083765800000002)"><svg width="173.83246839999998" viewBox="5 -28.75 263.69000244140625 28.75" height="18.952155731892297" data-palette-color="#282634"><path d="M5-28.75L5-28.75 10.7-28.75 21-19.05 21-11.5 11.3-20.65 11.3 0 5 0 5-28.75ZM39.45-28.75L39.45-28.75 33.8-28.75 23.45-19.05 23.45-11.5 33.15-20.65 33.15 0 39.45 0 39.45-28.75ZM48.45-28.75L48.45-28.75 54.75-28.75 54.75 0 48.45 0 48.45-28.75ZM62.75-3.4L62.75-25.3 68.59-28.75 78.95-28.75 78.95-23.1 69.25-23.1 69.25-5.85 78.75-5.85 78.75 0 68.59 0 62.75-3.4ZM97.4-9.3L90.9-9.3 90.9-5.85 81.4-5.85 81.4 0 91.55 0 97.4-3.4 97.4-9.3ZM90.9-19.6L97.4-19.6 97.4-25.3 91.55-28.75 81.2-28.75 81.2-23.1 90.9-23.1 90.9-19.6ZM106.39-28.75L106.39-28.75 112.69-28.75 112.69-17.2 122.39-17.2 122.39-11.5 112.69-11.5 112.69 0 106.39 0 106.39-28.75ZM140.84-28.75L140.84-28.75 134.54-28.75 134.54-17.2 124.84-17.2 124.84-11.5 134.54-11.5 134.54 0 140.84 0 140.84-28.75ZM149.84-25.3L149.84-25.3 155.54-28.75 165.84-28.75 165.84-23.1 156.14-23.1 156.14-17.2 165.84-17.2 165.84-11.5 156.14-11.5 156.14 0 149.84 0 149.84-25.3ZM184.29-25.3L184.29-25.3 178.39-28.75 168.09-28.75 168.09-23.1 177.99-23.1 177.99-17.2 168.09-17.2 168.09-11.5 177.99-11.5 177.99 0 184.29 0 184.29-25.3ZM193.29-28.75L193.29-28.75 209.29-28.75 209.29-22.85 199.59-22.85 199.59-17.2 209.29-17.2 209.29-11.5 199.59-11.5 199.59-5.65 209.09-5.65 209.09 0 193.29 0 193.29-28.75ZM211.74-5.65L211.74-5.65 211.74 0 227.74 0 227.74-5.65 211.74-5.65ZM227.74-22.85L227.74-22.85 227.74-28.75 211.54-28.75 211.54-22.85 227.74-22.85ZM219.64-11.5L219.64-11.5 219.64-17.2 211.54-17.2 211.54-11.5 219.64-11.5ZM234.24-28.75L234.24-28.75 240.54-28.75 240.54-5.85 250.04-5.85 250.04 0 234.24 0 234.24-28.75ZM252.69-5.85L252.69-5.85 252.69 0 268.69 0 268.69-5.85 252.69-5.85Z" opacity="1" transform="matrix(1,0,0,1,0,0)" fill="#282634" class="undefined-text-0" data-fill-palette-color="quaternary" id="text-0"></path></svg></g></svg></g><g transform="matrix(1,0,0,1,0,61.6615702318923)"><svg viewBox="0 0 208 11.71243224230944" height="11.71243224230944" width="208"><g transform="matrix(1,0,0,1,0,0)"><svg width="208" viewBox="2.2899999618530273 -36.54999923706055 825.9500122070312 46.5099983215332" height="11.71243224230944" data-palette-color="#dcdcdc"><path d="M35.55-26.1L35.55-9.45Q35.55-7.4 34.77-5.58 33.98-3.76 32.63-2.42 31.27-1.07 29.46-0.29 27.64 0.49 25.56 0.49L25.56 0.49Q23.71 0.49 22-0.16 20.29-0.81 18.9-2.05L18.9-2.05Q17.53-0.81 15.83-0.16 14.14 0.49 12.26 0.49L12.26 0.49Q10.18 0.49 8.37-0.29 6.57-1.07 5.21-2.42 3.86-3.76 3.08-5.58 2.29-7.4 2.29-9.45L2.29-9.45 2.29-26.1 8.96-26.1 8.96-9.45Q8.96-8.76 9.22-8.17 9.47-7.57 9.92-7.12 10.38-6.67 10.97-6.41 11.57-6.15 12.26-6.15L12.26-6.15Q12.94-6.15 13.55-6.41 14.16-6.67 14.62-7.12 15.09-7.57 15.34-8.17 15.6-8.76 15.6-9.45L15.6-9.45 15.6-26.1 22.24-26.1 22.24-9.45Q22.24-8.76 22.51-8.17 22.78-7.57 23.23-7.12 23.68-6.67 24.28-6.41 24.88-6.15 25.56-6.15L25.56-6.15Q26.25-6.15 26.86-6.41 27.47-6.67 27.92-7.12 28.37-7.57 28.64-8.17 28.91-8.76 28.91-9.45L28.91-9.45 28.91-26.1 35.55-26.1ZM104.48-21.46L91.98-6.4Q92.37-6.27 92.76-6.24 93.15-6.2 93.54-6.2L93.54-6.2Q94.52-6.2 95.42-6.47 96.33-6.74 97.12-7.24 97.91-7.74 98.53-8.46 99.16-9.18 99.55-10.06L99.55-10.06 104.43-5.15Q103.5-3.83 102.29-2.78 101.09-1.73 99.68-1 98.28-0.27 96.73 0.11 95.18 0.49 93.54 0.49L93.54 0.49Q90.78 0.49 88.35-0.54 85.92-1.56 84.11-3.39 82.29-5.22 81.24-7.75 80.19-10.28 80.19-13.31L80.19-13.31Q80.19-16.41 81.24-18.97 82.29-21.53 84.11-23.34 85.92-25.15 88.35-26.15 90.78-27.15 93.54-27.15L93.54-27.15Q95.18-27.15 96.74-26.76 98.3-26.37 99.71-25.63 101.11-24.9 102.33-23.84 103.55-22.78 104.48-21.46L104.48-21.46ZM87.63-9.84L95.4-20.14Q94.93-20.31 94.48-20.36 94.03-20.41 93.54-20.41L93.54-20.41Q92.17-20.41 90.97-19.91 89.76-19.41 88.87-18.48 87.98-17.55 87.46-16.25 86.95-14.94 86.95-13.31L86.95-13.31Q86.95-12.94 86.99-12.48 87.02-12.01 87.11-11.54 87.19-11.06 87.32-10.62 87.44-10.18 87.63-9.84L87.63-9.84ZM175.19-13.31L175.19-13.31Q175.19-10.23 174.14-7.69 173.09-5.15 171.29-3.33 169.48-1.51 167.05-0.51 164.62 0.49 161.84 0.49L161.84 0.49Q159.08 0.49 156.65-0.54 154.22-1.56 152.4-3.39 150.58-5.22 149.53-7.75 148.49-10.28 148.49-13.31L148.49-13.31 148.49-36.55 155.17-36.55 155.17-24.34Q155.71-25.02 156.48-25.56 157.25-26.1 158.14-26.44 159.03-26.78 159.98-26.97 160.94-27.15 161.84-27.15L161.84-27.15Q164.62-27.15 167.05-26.11 169.48-25.07 171.29-23.22 173.09-21.36 174.14-18.84 175.19-16.31 175.19-13.31ZM168.48-13.31L168.48-13.31Q168.48-14.82 167.96-16.13 167.43-17.43 166.53-18.38 165.62-19.34 164.42-19.87 163.21-20.41 161.84-20.41L161.84-20.41Q160.47-20.41 159.26-19.81 158.06-19.21 157.15-18.23 156.25-17.24 155.74-15.95 155.22-14.67 155.22-13.31L155.22-13.31Q155.22-11.79 155.74-10.5 156.25-9.2 157.15-8.25 158.06-7.3 159.26-6.75 160.47-6.2 161.84-6.2L161.84-6.2Q163.21-6.2 164.42-6.75 165.62-7.3 166.53-8.25 167.43-9.2 167.96-10.5 168.48-11.79 168.48-13.31ZM300.53-36.55L300.53 0 298.92 0 296.34-3.59Q295.38-2.73 294.32-1.99 293.26-1.25 292.09-0.7 290.92-0.15 289.68 0.17 288.45 0.49 287.18 0.49L287.18 0.49Q284.42 0.49 281.99-0.55 279.56-1.59 277.74-3.43 275.93-5.27 274.88-7.8 273.83-10.33 273.83-13.31L273.83-13.31Q273.83-16.26 274.88-18.8 275.93-21.34 277.74-23.19 279.56-25.05 281.99-26.1 284.42-27.15 287.18-27.15L287.18-27.15Q288.06-27.15 289-27 289.94-26.86 290.83-26.53 291.72-26.2 292.5-25.66 293.28-25.12 293.82-24.34L293.82-24.34 293.82-36.55 300.53-36.55ZM293.82-13.31L293.82-13.31Q293.82-14.67 293.3-15.95 292.77-17.24 291.87-18.23 290.96-19.21 289.76-19.81 288.55-20.41 287.18-20.41L287.18-20.41Q285.81-20.41 284.6-19.92 283.4-19.43 282.51-18.52 281.61-17.6 281.1-16.28 280.59-14.97 280.59-13.31L280.59-13.31Q280.59-11.87 281.1-10.57 281.61-9.28 282.51-8.3 283.4-7.32 284.6-6.76 285.81-6.2 287.18-6.2L287.18-6.2Q288.55-6.2 289.76-6.8 290.96-7.4 291.87-8.39 292.77-9.38 293.3-10.66 293.82-11.94 293.82-13.31ZM369.71-21.46L357.21-6.4Q357.6-6.27 357.99-6.24 358.38-6.2 358.77-6.2L358.77-6.2Q359.75-6.2 360.65-6.47 361.56-6.74 362.35-7.24 363.14-7.74 363.77-8.46 364.39-9.18 364.78-10.06L364.78-10.06 369.66-5.15Q368.73-3.83 367.53-2.78 366.32-1.73 364.91-1 363.51-0.27 361.96 0.11 360.41 0.49 358.77 0.49L358.77 0.49Q356.02 0.49 353.59-0.54 351.16-1.56 349.34-3.39 347.52-5.22 346.47-7.75 345.42-10.28 345.42-13.31L345.42-13.31Q345.42-16.41 346.47-18.97 347.52-21.53 349.34-23.34 351.16-25.15 353.59-26.15 356.02-27.15 358.77-27.15L358.77-27.15Q360.41-27.15 361.97-26.76 363.53-26.37 364.94-25.63 366.34-24.9 367.56-23.84 368.78-22.78 369.71-21.46L369.71-21.46ZM352.87-9.84L360.63-20.14Q360.17-20.31 359.71-20.36 359.26-20.41 358.77-20.41L358.77-20.41Q357.41-20.41 356.2-19.91 354.99-19.41 354.1-18.48 353.21-17.55 352.69-16.25 352.18-14.94 352.18-13.31L352.18-13.31Q352.18-12.94 352.22-12.48 352.26-12.01 352.34-11.54 352.43-11.06 352.55-10.62 352.67-10.18 352.87-9.84L352.87-9.84ZM428.02 0L421.33 0 411.37-26.15 418.97-26.15 424.68-9.84 430.37-26.15 437.98-26.15 428.02 0ZM503.87-21.46L491.37-6.4Q491.76-6.27 492.15-6.24 492.54-6.2 492.93-6.2L492.93-6.2Q493.9-6.2 494.81-6.47 495.71-6.74 496.5-7.24 497.3-7.74 497.92-8.46 498.54-9.18 498.93-10.06L498.93-10.06 503.82-5.15Q502.89-3.83 501.68-2.78 500.47-1.73 499.07-1 497.66-0.27 496.11 0.11 494.56 0.49 492.93 0.49L492.93 0.49Q490.17 0.49 487.74-0.54 485.31-1.56 483.49-3.39 481.67-5.22 480.62-7.75 479.57-10.28 479.57-13.31L479.57-13.31Q479.57-16.41 480.62-18.97 481.67-21.53 483.49-23.34 485.31-25.15 487.74-26.15 490.17-27.15 492.93-27.15L492.93-27.15Q494.56-27.15 496.13-26.76 497.69-26.37 499.09-25.63 500.5-24.9 501.72-23.84 502.94-22.78 503.87-21.46L503.87-21.46ZM487.02-9.84L494.78-20.14Q494.32-20.31 493.87-20.36 493.42-20.41 492.93-20.41L492.93-20.41Q491.56-20.41 490.35-19.91 489.14-19.41 488.25-18.48 487.36-17.55 486.85-16.25 486.34-14.94 486.34-13.31L486.34-13.31Q486.34-12.94 486.37-12.48 486.41-12.01 486.5-11.54 486.58-11.06 486.7-10.62 486.82-10.18 487.02-9.84L487.02-9.84ZM555.12-36.55L555.12 0 548.41 0 548.41-36.55 555.12-36.55ZM626.67-13.31L626.67-13.31Q626.67-10.38 625.62-7.85 624.57-5.32 622.76-3.48 620.95-1.64 618.53-0.57 616.1 0.49 613.31 0.49L613.31 0.49Q610.55 0.49 608.12-0.57 605.7-1.64 603.88-3.48 602.06-5.32 601.01-7.85 599.96-10.38 599.96-13.31L599.96-13.31Q599.96-16.28 601.01-18.82 602.06-21.36 603.88-23.21 605.7-25.05 608.12-26.1 610.55-27.15 613.31-27.15L613.31-27.15Q616.1-27.15 618.53-26.16 620.95-25.17 622.76-23.35 624.57-21.53 625.62-18.98 626.67-16.43 626.67-13.31ZM619.95-13.31L619.95-13.31Q619.95-14.92 619.43-16.22 618.9-17.53 618-18.47 617.1-19.41 615.89-19.91 614.68-20.41 613.31-20.41L613.31-20.41Q611.95-20.41 610.74-19.91 609.53-19.41 608.64-18.47 607.75-17.53 607.23-16.22 606.72-14.92 606.72-13.31L606.72-13.31Q606.72-11.79 607.23-10.5 607.75-9.2 608.64-8.25 609.53-7.3 610.74-6.75 611.95-6.2 613.31-6.2L613.31-6.2Q614.68-6.2 615.89-6.71 617.1-7.23 618-8.15 618.9-9.08 619.43-10.4 619.95-11.72 619.95-13.31ZM678.27-1.76L678.27 9.96 671.55 9.96 671.55-26.15 673.16-26.15 675.82-23Q676.73-23.85 677.8-24.61 678.88-25.37 680.04-25.92 681.2-26.46 682.44-26.78 683.69-27.1 684.96-27.1L684.96-27.1Q687.71-27.1 690.14-26.11 692.57-25.12 694.39-23.32 696.21-21.51 697.26-18.96 698.31-16.41 698.31-13.31L698.31-13.31Q698.31-10.08 697.26-7.51 696.21-4.93 694.39-3.14 692.57-1.34 690.14-0.39 687.71 0.56 684.96 0.56L684.96 0.56Q684.08 0.56 683.21 0.37 682.34 0.17 681.5-0.16 680.66-0.49 679.84-0.9 679.02-1.32 678.27-1.76L678.27-1.76ZM691.62-13.31L691.62-13.31Q691.62-14.97 691.1-16.28 690.57-17.6 689.67-18.52 688.76-19.43 687.54-19.92 686.32-20.41 684.96-20.41L684.96-20.41Q683.59-20.41 682.38-19.92 681.17-19.43 680.27-18.52 679.36-17.6 678.84-16.28 678.31-14.97 678.31-13.31L678.31-13.31Q678.31-11.72 678.84-10.4 679.36-9.08 680.27-8.15 681.17-7.23 682.38-6.71 683.59-6.2 684.96-6.2L684.96-6.2Q686.32-6.2 687.54-6.71 688.76-7.23 689.67-8.15 690.57-9.08 691.1-10.4 691.62-11.72 691.62-13.31ZM766.09-21.46L753.59-6.4Q753.99-6.27 754.38-6.24 754.77-6.2 755.16-6.2L755.16-6.2Q756.13-6.2 757.04-6.47 757.94-6.74 758.73-7.24 759.53-7.74 760.15-8.46 760.77-9.18 761.16-10.06L761.16-10.06 766.05-5.15Q765.12-3.83 763.91-2.78 762.7-1.73 761.3-1 759.89-0.27 758.34 0.11 756.79 0.49 755.16 0.49L755.16 0.49Q752.4 0.49 749.97-0.54 747.54-1.56 745.72-3.39 743.9-5.22 742.85-7.75 741.8-10.28 741.8-13.31L741.8-13.31Q741.8-16.41 742.85-18.97 743.9-21.53 745.72-23.34 747.54-25.15 749.97-26.15 752.4-27.15 755.16-27.15L755.16-27.15Q756.79-27.15 758.36-26.76 759.92-26.37 761.32-25.63 762.73-24.9 763.95-23.84 765.17-22.78 766.09-21.46L766.09-21.46ZM749.25-9.84L757.01-20.14Q756.55-20.31 756.1-20.36 755.65-20.41 755.16-20.41L755.16-20.41Q753.79-20.41 752.58-19.91 751.37-19.41 750.48-18.48 749.59-17.55 749.08-16.25 748.57-14.94 748.57-13.31L748.57-13.31Q748.57-12.94 748.6-12.48 748.64-12.01 748.72-11.54 748.81-11.06 748.93-10.62 749.05-10.18 749.25-9.84L749.25-9.84ZM817.3-14.4L817.3 0 810.64 0 810.64-26.15 812.25-26.15 814.45-23.05Q816.06-24.51 818.11-25.31 820.16-26.1 822.36-26.1L822.36-26.1 828.24-26.1 828.24-19.46 822.36-19.46Q821.31-19.46 820.38-19.07 819.45-18.68 818.77-17.99 818.08-17.31 817.69-16.38 817.3-15.45 817.3-14.4L817.3-14.4Z" opacity="1" transform="matrix(1,0,0,1,0,0)" fill="#dcdcdc" class="undefined-text-1" data-fill-palette-color="secondary" id="text-1"></path></svg></g></svg></g></svg></g></svg></g></svg></g></svg></g></svg></g><defs></defs></svg><rect width="320" height="360" fill="none" stroke="none" visibility="hidden"></rect></g></svg></g></svg>